<svg xmlns="http://www.w3.org/2000/svg" width="27.411" height="27.412" viewBox="0 0 27.411 27.412">
  <g id="svgexport-6_-_2022-11-08T135712.766" data-name="svgexport-6 - 2022-11-08T135712.766" transform="translate(-0.002 0.001)">
    <path id="Path_913" data-name="Path 913" d="M27.327,12.183a.893.893,0,0,0-.881-.675,3.026,3.026,0,0,1-2.071-5.267.762.762,0,0,0,.084-1.034,13.568,13.568,0,0,0-2.171-2.193.763.763,0,0,0-1.042.084,3.159,3.159,0,0,1-3.418.768A3.044,3.044,0,0,1,15.975.891.761.761,0,0,0,15.3.09,13.678,13.678,0,0,0,12.219.082a.763.763,0,0,0-.678.784A3.05,3.05,0,0,1,9.663,3.791a3.167,3.167,0,0,1-3.393-.773.764.764,0,0,0-1.034-.087A13.625,13.625,0,0,0,3.019,5.124.762.762,0,0,0,3.1,6.165a3.037,3.037,0,0,1,.766,3.42A3.168,3.168,0,0,1,.885,11.437a.746.746,0,0,0-.792.673,13.739,13.739,0,0,0-.006,3.116.907.907,0,0,0,.9.674,3.006,3.006,0,0,1,2.82,1.878,3.049,3.049,0,0,1-.767,3.389A.761.761,0,0,0,2.957,22.2a13.617,13.617,0,0,0,2.168,2.194.762.762,0,0,0,1.043-.083,3.154,3.154,0,0,1,3.417-.768,3.04,3.04,0,0,1,1.855,2.975.761.761,0,0,0,.672.8,13.647,13.647,0,0,0,3.084.008.763.763,0,0,0,.678-.785,3.046,3.046,0,0,1,1.876-2.923,3.163,3.163,0,0,1,3.394.772.765.765,0,0,0,1.034.087,13.643,13.643,0,0,0,2.217-2.192.761.761,0,0,0-.082-1.042,3.037,3.037,0,0,1-.768-3.419,3.068,3.068,0,0,1,2.8-1.858l.17,0a.763.763,0,0,0,.8-.672A13.679,13.679,0,0,0,27.327,12.183Zm-13.62,9.423a7.9,7.9,0,1,1,6.784-3.85l-3.46-3.46a4.847,4.847,0,0,0-5.738-6.565.549.549,0,0,0-.379.382.535.535,0,0,0,.152.524s1.708,1.721,2.28,2.293a.354.354,0,0,1,.051.254l-.005.038a10.924,10.924,0,0,1-.26,1.672l-.037.035-.038.039a10.768,10.768,0,0,1-1.7.264v0l-.029.007H11.3a.365.365,0,0,1-.263-.111C10.445,12.531,8.8,10.9,8.8,10.9a.558.558,0,0,0-.4-.178.542.542,0,0,0-.511.413,4.847,4.847,0,0,0,6.567,5.729l3.5,3.5A7.862,7.862,0,0,1,13.707,21.606Z" transform="translate(0 0)" fill="#0473c0"/>
  </g>
</svg>
