<svg id="اطعمة_ومشروبات" data-name="اطعمة ومشروبات" xmlns="http://www.w3.org/2000/svg" width="20.621" height="27.494" viewBox="0 0 20.621 27.494">
  <g id="Group_184" data-name="Group 184">
    <g id="Group_183" data-name="Group 183" transform="translate(0)">
      <path id="Path_958" data-name="Path 958" d="M61.51,9.165C61.51,4.1,59.2,0,56.355,0S51.2,4.1,51.2,9.165a5.143,5.143,0,0,0,3.332,4.806L54.064,25.2a2.291,2.291,0,1,0,4.583,0l-.468-11.231A5.143,5.143,0,0,0,61.51,9.165Z" transform="translate(-51.2)" fill="#b0b0b0"/>
    </g>
  </g>
  <g id="Group_186" data-name="Group 186" transform="translate(12.029)">
    <g id="Group_185" data-name="Group 185">
      <path id="Path_959" data-name="Path 959" d="M238.992,8.306,238.706,0h-1.432l-.286,8.306h-1.146L235.555,0h-1.718l-.286,8.306H232.4L232.118,0h-1.432L230.4,8.306a4.29,4.29,0,0,0,2.546,3.916L232.4,25.2a2.291,2.291,0,0,0,4.583,0l-.542-12.982A4.29,4.29,0,0,0,238.992,8.306Z" transform="translate(-230.4)" fill="#b0b0b0"/>
    </g>
  </g>
</svg>
