<svg id="برمجة_وتصميم" data-name="برمجة وتصميم" xmlns="http://www.w3.org/2000/svg" width="24.756" height="21.561" viewBox="0 0 24.756 21.561">
  <path id="Path_960" data-name="Path 960" d="M21.267,56.7s-17.75-.007-17.817-.021a1.024,1.024,0,0,1-.822-1V45.162H0V59.3H21.267Z" transform="translate(0 -37.743)" fill="#b0b0b0"/>
  <path id="Path_961" data-name="Path 961" d="M0,25.325H2.628v3.106H0Z" transform="translate(0 -21.866)" fill="#b0b0b0"/>
  <path id="Path_962" data-name="Path 962" d="M17.477,27.837V41.979H38.743V27.837Zm8.245,8.3-.254.742-4.211-1.764v-.771l4.211-1.764.254.742-3.46,1.407ZM26.931,39.4H26l3.3-9.33h.907Zm8.032-4.28-4.211,1.764L30.5,36.14l3.46-1.407L30.5,33.325l.254-.742,4.211,1.764Z" transform="translate(-13.988 -23.877)" fill="#b0b0b0"/>
  <path id="Path_963" data-name="Path 963" d="M38.743,11.106V8H17.477v3.106ZM23.149,9.042h1.682a.286.286,0,0,1,.224.105.44.44,0,0,1-.308.749H23.065a.286.286,0,0,1-.224-.105.44.44,0,0,1,.308-.749Zm-3.638,0h1.682a.286.286,0,0,1,.224.105.44.44,0,0,1-.308.749H19.428a.286.286,0,0,1-.224-.105.44.44,0,0,1,.308-.749Z" transform="translate(-13.988 -8)" fill="#b0b0b0"/>
</svg>
