<svg id="صيد_ورحلات" data-name="صيد ورحلات" xmlns="http://www.w3.org/2000/svg" width="30.152" height="27.207" viewBox="0 0 30.152 27.207">
  <path id="Path_971" data-name="Path 971" d="M241.476,5.889a2.945,2.945,0,1,0-2.945-2.945A2.948,2.948,0,0,0,241.476,5.889Zm0,0" transform="translate(-224.484)" fill="#b0b0b0"/>
  <path id="Path_972" data-name="Path 972" d="M320.449,241.659l3.9,6.739h5.769l-4.406-7.632-3.6,1.664Zm0,0" transform="translate(-301.578 -226.586)" fill="#b0b0b0"/>
  <path id="Path_973" data-name="Path 973" d="M42.377,219.907l-4.383,2.028-4.443-2.055-5.117,8.862H47.489Zm0,0" transform="translate(-26.76 -206.931)" fill="#b0b0b0"/>
  <path id="Path_974" data-name="Path 974" d="M137.43,96.586l-3.537-6.113-3.513,6.084,3.556,1.645Zm0,0" transform="translate(-122.701 -85.145)" fill="#b0b0b0"/>
  <path id="Path_975" data-name="Path 975" d="M0,400.367H30.152V404H0Zm0,0" transform="translate(0 -376.789)" fill="#b0b0b0"/>
  <path id="Path_976" data-name="Path 976" d="M305.425,140.921l2.71-1.254-2.71-4.694-2.71,4.694Zm0,0" transform="translate(-284.888 -127.024)" fill="#b0b0b0"/>
</svg>
