<svg xmlns="http://www.w3.org/2000/svg" width="23.634" height="26.403" viewBox="0 0 23.634 26.403">
  <g id="مستلزمات_شخصية" data-name="مستلزمات شخصية" transform="translate(-24.165)">
    <g id="Group_180" data-name="Group 180" transform="translate(24.165)">
      <g id="Group_179" data-name="Group 179" transform="translate(0)">
        <g id="Group_178" data-name="Group 178">
          <path id="Path_953" data-name="Path 953" d="M117.647,13.71a6.855,6.855,0,1,0-6.855-6.855A6.873,6.873,0,0,0,117.647,13.71Z" transform="translate(-105.828 0)" fill="#b0b0b0"/>
          <path id="Path_954" data-name="Path 954" d="M47.748,252.828a6.391,6.391,0,0,0-.688-1.257,8.521,8.521,0,0,0-5.9-3.712,1.262,1.262,0,0,0-.868.21,7.307,7.307,0,0,1-8.621,0,1.123,1.123,0,0,0-.868-.21,8.459,8.459,0,0,0-5.9,3.712,7.368,7.368,0,0,0-.688,1.257.637.637,0,0,0,.03.569,11.943,11.943,0,0,0,.808,1.2,11.374,11.374,0,0,0,1.377,1.557,17.93,17.93,0,0,0,1.377,1.2,13.651,13.651,0,0,0,16.285,0,13.158,13.158,0,0,0,1.377-1.2,13.823,13.823,0,0,0,1.377-1.557,10.5,10.5,0,0,0,.808-1.2A.511.511,0,0,0,47.748,252.828Z" transform="translate(-24.165 -233.64)" fill="#b0b0b0"/>
        </g>
      </g>
    </g>
  </g>
</svg>
