<svg id="مكتبة_وفنون" data-name="مكتبة وفنون" xmlns="http://www.w3.org/2000/svg" width="26.669" height="22.622" viewBox="0 0 26.669 22.622">
  <g id="_21_-_30" data-name="21 - 30">
    <g id="Art">
      <path id="Path_968" data-name="Path 968" d="M42.987,18.018a13.36,13.36,0,0,0-.628-1.218L39.4,24.847a2.775,2.775,0,0,1-.486.824,5.188,5.188,0,0,0,4.33-7.029c-.079-.212-.164-.419-.255-.624Z" transform="translate(-16.919 -9.379)" fill="#b0b0b0"/>
      <path id="Path_969" data-name="Path 969" d="M10.07,5.84A13.639,13.639,0,0,0,1.979,23.748c.018.037.03.073.048.109a5.184,5.184,0,0,0,9.087.885A9.7,9.7,0,0,1,15.6,21.1c.058-.023.116-.041.174-.062a3.589,3.589,0,0,1,2.239-2,2.823,2.823,0,0,1,.262-1.267L22.86,7.841a13.665,13.665,0,0,0-12.79-2ZM6.514,20.982a2.321,2.321,0,1,1,2.321-2.321A2.321,2.321,0,0,1,6.514,20.982Zm2.9-6.672a2.321,2.321,0,1,1,2.321-2.321A2.321,2.321,0,0,1,9.415,14.31Zm6.962-2.031A2.321,2.321,0,1,1,18.7,9.959,2.321,2.321,0,0,1,16.377,12.279Z" transform="translate(-1.005 -4.452)" fill="#b0b0b0"/>
      <path id="Path_970" data-name="Path 970" d="M37.966,4.091a1.078,1.078,0,0,0-1.392.544L30.491,17.808a1.658,1.658,0,0,0,.31,1.845A2.451,2.451,0,0,0,27.979,21.1c-.939,2.268.547,3.263-.393,5.532a6.107,6.107,0,0,0,4.931-3.655,2.448,2.448,0,0,0-.725-2.835,1.653,1.653,0,0,0,1.762-1.066L38.567,5.457a1.079,1.079,0,0,0-.6-1.366Z" transform="translate(-12.165 -4.008)" fill="#b0b0b0"/>
    </g>
  </g>
</svg>
