<svg xmlns="http://www.w3.org/2000/svg" width="25.039" height="17.028" viewBox="0 0 25.039 17.028">
  <g id="مواشي_وحيوانات_وطيور" data-name="مواشي وحيوانات وطيور" transform="translate(0 -76.096)">
    <g id="Group_174" data-name="Group 174" transform="translate(0 76.096)">
      <path id="Path_947" data-name="Path 947" d="M24.9,80.275l-2.7-2.814,1.174-.749.069-.584L22.9,76.1l-1.412,1.016-1.763,0-1.079-.659-.386.079.006.428.7.77-.092.4-8.185.88L2.2,78.78l-.914.383-.673.855-.346,2L.21,83.456,0,84.8l.058,1.337.236.048.343-.378.279-1.255L.69,82.811.768,82.8l.531,2.65-.362,2.3.331,4.59.031.508.322.275,1.424,0,.459-.139L2.231,90.91l.632-2.635h.331l1.155,3.5.6.9.294.181H6.81l.2-.252-1.361-.836-.923-2.842.231-.461.542.05.34.833.493-.812.478.816.4-.886,1.191-.915,4.226-.4.709.867.6,4.239.314.609h1.44l.155-.228-.875-1.218L14.869,89.1l.473.262.5,1.541.633,2,.284.22h1.288l.107-.291-.377-.349L16.56,90.111l.28-2.488L18.2,86.616l1.983-3.683,2.282-1.054,2.1-.239.18-.2.294-.828Z" transform="translate(0 -76.096)" fill="#b0b0b0"/>
    </g>
  </g>
</svg>
