<svg id="وظائف" xmlns="http://www.w3.org/2000/svg" width="26.524" height="22.103" viewBox="0 0 26.524 22.103">
  <path id="Path_955" data-name="Path 955" d="M15.736,6.973a1.106,1.106,0,0,1-1.105-1.105V4.21H10.21V5.868a1.105,1.105,0,0,1-2.21,0V4.21A2.213,2.213,0,0,1,10.21,2h4.421a2.213,2.213,0,0,1,2.21,2.21V5.868A1.106,1.106,0,0,1,15.736,6.973Z" transform="translate(0.841 -2)" fill="#b0b0b0"/>
  <path id="Path_956" data-name="Path 956" d="M14.047,15.775a2.276,2.276,0,0,1-.785.133,2.422,2.422,0,0,1-.851-.155L0,11.62v8.432a3.038,3.038,0,0,0,3.039,3.039H23.485a3.038,3.038,0,0,0,3.039-3.039V11.62Z" transform="translate(0 -0.988)" fill="#b0b0b0"/>
  <path id="Path_957" data-name="Path 957" d="M26.524,8.039V10.57l-13,4.332a.818.818,0,0,1-.53,0L0,10.57V8.039A3.038,3.038,0,0,1,3.039,5H23.485A3.038,3.038,0,0,1,26.524,8.039Z" transform="translate(0 -1.684)" fill="#b0b0b0"/>
</svg>
