<svg xmlns="http://www.w3.org/2000/svg" width="33.644" height="29.62" viewBox="0 0 33.644 29.62">
  <g id="svgexport-6_-_2022-11-08T132613.581" data-name="svgexport-6 - 2022-11-08T132613.581" transform="translate(-5 -7.99)">
    <g id="Group_145" data-name="Group 145" transform="translate(5 7.99)">
      <path id="Path_905" data-name="Path 905" d="M34.014,50.683a.675.675,0,0,1-.673.673H5.673a.673.673,0,0,1,0-1.346H33.342A.675.675,0,0,1,34.014,50.683Z" transform="translate(-5 -21.736)" fill="#0473c0"/>
      <path id="Path_906" data-name="Path 906" d="M33.312,32.878v2.16a2.809,2.809,0,0,1-2.806,2.806H9.856A2.809,2.809,0,0,1,7.05,35.038V21.056A2.809,2.809,0,0,1,9.856,18.25H24.612V29.305a3.574,3.574,0,0,0,3.566,3.573Z" transform="translate(-5.671 -11.346)" fill="#0473c0"/>
      <path id="Path_907" data-name="Path 907" d="M46.286,7.99H37.37a2.224,2.224,0,0,0-2.22,2.227V25.956a2.228,2.228,0,0,0,2.22,2.227h8.916a2.228,2.228,0,0,0,2.22-2.227V10.217A2.22,2.22,0,0,0,46.286,7.99ZM43.958,25.963H39.705a.673.673,0,1,1,0-1.346h4.253a.673.673,0,0,1,0,1.346Z" transform="translate(-14.863 -7.99)" fill="#0473c0"/>
    </g>
  </g>
</svg>
