<svg xmlns="http://www.w3.org/2000/svg" width="34.691" height="24.617" viewBox="0 0 34.691 24.617">
  <g id="svgexport-6_-_2022-11-08T134212.032" data-name="svgexport-6 - 2022-11-08T134212.032" transform="translate(0.001 -73.665)">
    <path id="Path_909" data-name="Path 909" d="M58.385,385.425l-.325,1.3a1.608,1.608,0,1,0,3.121.78l.516-2.064H58.809c-.142,0-.284-.005-.423-.016Z" transform="translate(-54.046 -290.442)" fill="#0473c0"/>
    <path id="Path_910" data-name="Path 910" d="M398.737,385.425c-.139.011-.281.016-.423.016h-2.888l.516,2.064a1.608,1.608,0,0,0,3.121-.78Z" transform="translate(-368.387 -290.442)" fill="#0473c0"/>
    <path id="Path_911" data-name="Path 911" d="M43.625,79.7a3.97,3.97,0,0,1,3.554,3.168l.842,4.209a1.016,1.016,0,0,0,.994.814h17.53a1.016,1.016,0,0,0,.994-.814l.842-4.209a3.972,3.972,0,0,1,3.191-3.121l.137-.769a4.517,4.517,0,0,0-4.446-5.31H47.92A4.516,4.516,0,0,0,43.5,79.127Z" transform="translate(-40.435)" fill="#0473c0"/>
    <path id="Path_912" data-name="Path 912" d="M33.918,178.566a2.874,2.874,0,0,0-2.092-.907,2.845,2.845,0,0,0-.9.147h0a2.886,2.886,0,0,0-1.907,2.156l-.842,4.209a2.113,2.113,0,0,1-2.066,1.694H8.58a2.113,2.113,0,0,1-2.066-1.694l-.842-4.209a2.885,2.885,0,0,0-2.238-2.244h0a2.863,2.863,0,0,0-3.429,3l.381,5.717a4.381,4.381,0,0,0,4.223,4.354h0c.051,0,.1,0,.153,0H29.927c.051,0,.1,0,.153,0h0A4.381,4.381,0,0,0,34.3,186.43l.381-5.717A2.874,2.874,0,0,0,33.918,178.566Z" transform="translate(0 -96.882)" fill="#0473c0"/>
  </g>
</svg>
