<svg xmlns="http://www.w3.org/2000/svg" width="35.027" height="35.025" viewBox="0 0 35.027 35.025">
  <g id="svgexport-6_-_2022-11-08T132410.391" data-name="svgexport-6 - 2022-11-08T132410.391" transform="translate(0 -0.019)">
    <g id="Group_143" data-name="Group 143" transform="translate(0 0.019)">
      <path id="Path_903" data-name="Path 903" d="M96.111.019H88.156V4.87l7.955-1.326Z" transform="translate(-82.125 -0.019)" fill="#0473c0"/>
      <path id="Path_904" data-name="Path 904" d="M31.5,103.648V80.682H18.54v22.965H16.487V75.864L3.529,78.024v25.624H0V105.7H35.027v-2.052ZM26.431,83.633h2.18v2.052h-2.18Zm0,5h2.18v2.052h-2.18Zm0,5h2.18v2.052h-2.18Zm0,5h2.18V100.7h-2.18Zm-5-15.011h2.18v2.052h-2.18Zm0,5h2.18v2.052h-2.18Zm0,5h2.18v2.052h-2.18Zm0,5h2.18V100.7h-2.18ZM11.42,78.63H13.6v2.052H11.42Zm0,5H13.6v2.052H11.42Zm0,5H13.6v2.052H11.42Zm0,5H13.6v2.052H11.42Zm-5-10.007H8.6v2.052H6.417Zm0,5H8.6v2.052H6.417Zm0,5H8.6v2.052H6.417Zm.064,5h7.056v5H11.484V100.7H8.533v2.951H6.48Z" transform="translate(0 -70.675)" fill="#0473c0"/>
    </g>
  </g>
</svg>
