<svg xmlns="http://www.w3.org/2000/svg" width="35.514" height="23.246" viewBox="0 0 35.514 23.246">
  <g id="svgexport-6_-_2022-11-08T132123.061" data-name="svgexport-6 - 2022-11-08T132123.061" transform="translate(0 -8.463)">
    <g id="Group_141" data-name="Group 141" transform="translate(0 8.463)">
      <path id="Path_902" data-name="Path 902" d="M33.314,15.885a1.06,1.06,0,0,0-.072-.081L32,14.6c1.032-.234,2.143-1.1,2.143-1.986,0-1.034-1.434-1.4-2.659-1.4-1.28,0-1.429.877-1.444,1.5l-3.211-3.1a4.532,4.532,0,0,0-2.815-1.154H11.5A4.533,4.533,0,0,0,8.688,9.617l-3.21,3.1c-.017-.62-.165-1.5-1.444-1.5-1.226,0-2.659.367-2.659,1.4,0,.887,1.112,1.752,2.144,1.986L2.274,15.8c-.028.027-.048.054-.072.081A6.972,6.972,0,0,0,0,20.665v4.551A4.151,4.151,0,0,0,1.139,28.07v1.765a1.9,1.9,0,0,0,1.927,1.874H5.4a1.9,1.9,0,0,0,1.926-1.874v-.452H28.193v.452a1.9,1.9,0,0,0,1.927,1.874h2.329a1.9,1.9,0,0,0,1.926-1.874V28.07a4.148,4.148,0,0,0,1.139-2.854V20.665A6.964,6.964,0,0,0,33.314,15.885ZM9.867,10.993a3.211,3.211,0,0,1,1.634-.662H24.014a3.211,3.211,0,0,1,1.634.662l4.211,4.081H5.657ZM1.445,19.976a2,2,0,0,1,1.96-2.03c1.082,0,4.619,2.076,4.619,3.2S4.487,22,3.4,22A1.993,1.993,0,0,1,1.445,19.976Zm5.878,7.412H6.576l-2.214,0a4.21,4.21,0,0,1-1.355-.655,1.922,1.922,0,0,1-.367-.373,1.458,1.458,0,0,1-.206-.376,1.712,1.712,0,0,1,.294-1.494H6.507l2.52,2.892Zm15.869,0H12.324a2.054,2.054,0,0,1-2.053-2.052H25.244A2.053,2.053,0,0,1,23.192,27.39Zm.477-3.452H11.847c-1.232,0-2.232-1.519-2.232-3.393H25.9C25.9,22.419,24.9,23.937,23.669,23.937Zm9.413,2.053a1.468,1.468,0,0,1-.207.375,1.881,1.881,0,0,1-.367.373,4.173,4.173,0,0,1-1.355.655l-2.214,0H26.487L29.008,24.5h3.779A1.709,1.709,0,0,1,33.082,25.99ZM32.111,22c-1.081,0-4.618.258-4.618-.861s3.536-3.2,4.618-3.2a2.03,2.03,0,0,1,0,4.058Z" transform="translate(0 -8.463)" fill="#0473c0"/>
    </g>
  </g>
</svg>
